# xmcd
#
# Track frame offsets: 
#        150
#        14976
#        38205
#        56190
#        75659
#        88977
#        105818
#        114881
#        135228
#        156845
#
# Disc length: 2648 seconds
#
# Revision: 1
# Processed by: cddbd v1.5.2PL0 Copyright (c) Steve Scherf et al.
# Submitted via: ExactAudioCopy v0.99pb4
#
DISCID=780a560a
DTITLE=Moha! - Raus Aus Stavanger
DYEAR=2006
DGENRE=Electronic
TTITLE0=A2
TTITLE1=B1
TTITLE2=B3
TTITLE3=C5
TTITLE4=C7
TTITLE5=B2
TTITLE6=C8
TTITLE7=C4
TTITLE8=A4
TTITLE9=B5
EXTD=YEAR: 2006
EXTT0=
EXTT1=
EXTT2=
EXTT3=
EXTT4=
EXTT5=
EXTT6=
EXTT7=
EXTT8=
EXTT9=
PLAYORDER=
